# Blender v2.79 (sub 0) OBJ File: ''
# www.blender.org
mtllib 0514_SPEED 2_Collider_Short.mtl
o Plane.003
v 0.296875 0.000000 -0.469562
v -0.296875 0.000000 -2.431937
v -0.296875 0.000000 -0.469562
v 0.296875 0.000000 -2.431937
v 0.296875 0.014438 -0.469562
v 0.296875 0.014439 -2.431937
v -0.296875 0.014439 -2.431937
v -0.296875 0.014438 -0.469562
vn 0.0000 -1.0000 -0.0000
vn 0.0000 1.0000 0.0000
vn 0.0000 0.0000 -1.0000
vn 0.0000 0.0000 1.0000
vn -1.0000 0.0000 0.0000
vn 1.0000 0.0000 0.0000
usemtl None.004
s off
f 1//1 3//1 2//1
f 1//1 2//1 4//1
f 5//2 7//2 8//2
f 5//2 6//2 7//2
f 4//3 2//3 7//3 6//3
f 3//4 1//4 5//4 8//4
f 2//5 3//5 8//5 7//5
f 1//6 4//6 6//6 5//6
